<?xml version="1.0" encoding="utf-8"?>
<!-- Generator: Adobe Illustrator 24.0.0, SVG Export Plug-In . SVG Version: 6.00 Build 0)  -->
<svg version="1.1" xmlns="http://www.w3.org/2000/svg" xmlns:xlink="http://www.w3.org/1999/xlink" x="0px" y="0px"
	 viewBox="0 0 708.66 498.9" style="enable-background:new 0 0 708.66 498.9;" xml:space="preserve">
<style type="text/css">
	.st0{fill:#619327;}
	.st1{fill:#CC402E;}
	.st2{fill:#726F6F;}
	.st3{display:none;}
	.st4{display:inline;}
	.st5{fill:#FFFFFF;}
	.st6{fill:#FFFFFF;stroke:url(#SVGID_1_);stroke-width:6;stroke-miterlimit:10;}
	.st7{fill:url(#SVGID_2_);}
	.st8{fill:url(#SVGID_3_);}
	.st9{fill:#FFFFFF;stroke:url(#SVGID_4_);stroke-width:10;stroke-miterlimit:10;}
</style>
<g id="图层_1">
	<g id="XMLID_3_">
		<g>
			<path class="st0" d="M209.98,318.08c20.08,25.53,60.42,30.14,80.59,30.64c18.56,0.46,63.93,1.26,71.04,1.39
				c-5.7-2.92-29.22-18-41.25-34.75c-15.06-17.7-26.23-48.29-22.77-86.48c0.28-3.08,0.69-6.11,1.23-9.1
				c-5.76-3.14-12.87-6.39-22.04-9.95c-32.15-12.49-67.95-11.13-85.7-8.76c-17.76,2.38-48.71,15.12-48.71,15.12
				s16.37,7.75,27.77,28.47C181.55,265.4,189.9,292.56,209.98,318.08z"/>
			<path class="st1" d="M362.88,350.62c0,0,49.75-8.9,73.48-16.91c23.73-8.01,60.64-24.21,83.11-69.39
				c22.47-45.19,27.52-88.55,29.4-141.19c1.88-52.63,1.61-89.65,1.61-89.65s-15.78,25.25-45.5,45.02
				c-29.71,19.77-97.8,38.9-139.18,60.08c-38.05,19.46-60.86,47.19-66.98,81.21c14.47,7.9,20.46,15.18,29.06,25.26
				c12.03,14.1,21.67,47.86,25.42,64.54c3.75,16.68,9.26,40.55,9.26,40.55s-0.33-0.01-0.95-0.02
				C362.37,350.5,362.81,350.67,362.88,350.62z"/>
			<path class="st2" d="M297.6,228.87c-3.46,38.19,7.71,68.78,22.77,86.48c12.03,16.76,35.56,31.83,41.25,34.75
				c0.62,0.01,0.95,0.02,0.95,0.02s-5.52-23.87-9.26-40.55c-3.75-16.68-13.39-50.44-25.42-64.54c-8.6-10.08-14.59-17.36-29.06-25.26
				C298.29,222.76,297.87,225.79,297.6,228.87z"/>
		</g>
		<g>
		</g>
	</g>
</g>
<g id="图层_7" class="st3">
	<g id="图层_10">
		<g class="st4">
			<path class="st5" d="M315.88,311.05c0.67-2.22,0.25-4.62-0.38-6.84c-0.66-2.24-1.55-4.41-2.58-6.51
				c-2.05-4.21-4.52-8.22-7.11-12.13c-5.21-7.81-11-15.23-16.98-22.48c-11.98-14.48-24.85-28.22-38.23-41.41
				c-13.42-13.15-27.47-25.65-42-37.49c-7.27-5.91-14.75-11.57-22.61-16.64c-3.93-2.53-7.99-4.85-12.25-6.71
				c-2.13-0.92-4.31-1.77-6.57-2.25c-2.25-0.47-4.61-0.69-6.84-0.02l-0.11-0.28c2.24-0.91,4.75-0.89,7.1-0.55
				c2.38,0.33,4.67,1.05,6.92,1.83c4.47,1.67,8.72,3.83,12.83,6.19c8.23,4.74,15.92,10.29,23.39,16.08
				c14.91,11.65,28.59,24.72,41.83,38.15c13.22,13.45,25.9,27.44,37.7,42.16c5.85,7.4,11.5,14.97,16.57,22.93
				c2.52,3.99,4.91,8.07,6.9,12.37c0.99,2.15,1.85,4.36,2.47,6.65c0.59,2.27,0.98,4.74,0.23,7.06L315.88,311.05z"/>
		</g>
		<g class="st4">
			<path class="st5" d="M188.08,258.25c6-3.57,12.58-6.2,19.36-7.97c6.79-1.8,13.79-2.76,20.79-3.11
				c7.01-0.31,14.05-0.01,20.99,0.96c6.94,0.95,13.81,2.55,20.32,5.06c-6.75-1.76-13.61-2.83-20.5-3.51
				c-6.89-0.64-13.82-0.85-20.72-0.51c-6.9,0.31-13.77,1.17-20.52,2.63C201.07,253.28,194.44,255.36,188.08,258.25z"/>
		</g>
		<g class="st4">
			<path class="st5" d="M245.04,222.63c-2.6-1.11-5.25-2.06-7.96-2.82c-2.69-0.81-5.41-1.49-8.15-2.14
				c-5.47-1.26-11-2.27-16.55-3.03c-2.78-0.39-5.56-0.7-8.35-0.92c-2.79-0.25-5.58-0.36-8.38-0.39c-2.79,0-5.59,0.12-8.33,0.57
				c-2.73,0.43-5.5,1.16-7.7,2.99c0.92-1.09,2.15-1.88,3.44-2.51c1.3-0.61,2.67-1.07,4.06-1.44c2.79-0.7,5.64-1.03,8.49-1.17
				c5.71-0.28,11.4,0.15,17.04,0.89c5.63,0.81,11.21,1.92,16.67,3.51C234.77,217.75,240.19,219.69,245.04,222.63z"/>
		</g>
		<g class="st4">
			<path class="st5" d="M211.34,192.63c-3.23-1.28-6.41-2.58-9.63-3.74c-3.23-1.14-6.48-2.16-9.78-2.93
				c-3.29-0.8-6.64-1.34-10.01-1.5c-3.37-0.15-6.76,0.17-9.97,1.53c1.39-1.05,3.03-1.79,4.72-2.29c0.85-0.22,1.72-0.41,2.6-0.55
				c0.88-0.1,1.76-0.24,2.64-0.24c3.54-0.16,7.06,0.32,10.48,1.11c3.41,0.84,6.73,1.98,9.9,3.43
				C205.46,188.91,208.5,190.63,211.34,192.63z"/>
		</g>
		<g class="st4">
			<path class="st5" d="M215.08,183.91c-1.56-0.3-2.88-1.31-4.09-2.29c-1.2-1.02-2.3-2.15-3.31-3.35c-2.04-2.39-3.76-5.03-5.21-7.82
				c-1.42-2.8-2.58-5.77-3.11-8.92c-0.27-1.57-0.36-3.19-0.13-4.79c0.24-1.58,0.85-3.17,1.97-4.28c-0.75,1.37-1.02,2.87-0.99,4.35
				c0.01,1.48,0.3,2.95,0.67,4.39c0.41,1.43,0.88,2.86,1.47,4.24c0.56,1.39,1.2,2.76,1.9,4.1c1.36,2.7,2.94,5.29,4.66,7.79
				c0.87,1.24,1.77,2.46,2.77,3.6C212.67,182.06,213.7,183.2,215.08,183.91z"/>
		</g>
		<g class="st4">
			<path class="st5" d="M249.63,215.09c-1.11-0.43-1.91-1.39-2.68-2.26c-0.77-0.89-1.43-1.86-2.11-2.83c-1.29-1.96-2.46-4-3.52-6.09
				c-2.12-4.18-3.89-8.54-5.29-13.02c-1.38-4.48-2.41-9.11-2.72-13.83c-0.15-2.36-0.09-4.74,0.3-7.08c0.41-2.33,1.15-4.65,2.53-6.55
				c-0.99,2.12-1.42,4.39-1.55,6.66c-0.14,2.27,0,4.56,0.28,6.83c0.62,4.53,1.7,9,3.08,13.38c0.66,2.2,1.41,4.38,2.22,6.53
				c0.78,2.16,1.67,4.29,2.56,6.42c0.92,2.11,1.88,4.21,2.95,6.25c0.54,1.02,1.09,2.03,1.71,3c0.3,0.49,0.63,0.97,0.99,1.41
				C248.73,214.37,249.12,214.8,249.63,215.09z"/>
		</g>
		<g class="st4">
			<path class="st5" d="M278.44,249.48c-0.99-1.26-1.76-2.67-2.54-4.07c-0.75-1.41-1.51-2.83-2.19-4.28
				c-0.68-1.45-1.35-2.91-1.96-4.39c-0.64-1.47-1.21-2.97-1.76-4.48c-2.23-6.01-3.94-12.23-5.19-18.53
				c-1.18-6.32-1.78-12.75-1.79-19.18c0-6.43,0.93-12.84,2.44-19.03c-0.23,3.2-0.84,6.32-0.81,9.51l-0.11,2.38
				c-0.04,0.79-0.09,1.58-0.04,2.37l0.08,4.75c-0.01,0.79,0.08,1.58,0.14,2.37l0.17,2.37l0.17,2.36l0.3,2.35
				c0.22,1.57,0.33,3.14,0.61,4.7l0.81,4.67c1.19,6.21,2.78,12.35,4.69,18.4l0.72,2.27l0.78,2.25c0.5,1.51,1.07,2.99,1.63,4.47
				C275.74,243.71,276.91,246.68,278.44,249.48z"/>
		</g>
		<g class="st4">
			<path class="st5" d="M291.77,285.06c-6.27,0.23-12.51,0.67-18.72,1.28c-6.21,0.64-12.39,1.48-18.5,2.67
				c-6.12,1.15-12.17,2.64-18.1,4.52c-5.92,1.91-11.74,4.19-17.3,7.11c5.16-3.58,10.87-6.4,16.79-8.58
				c5.92-2.21,12.05-3.81,18.24-5.01c6.2-1.16,12.47-1.92,18.75-2.25C279.21,284.43,285.51,284.52,291.77,285.06z"/>
		</g>
		<g class="st4">
			<path class="st5" d="M310.4,320.29c-0.47-0.39-1.04-0.57-1.6-0.72c-0.56-0.15-1.14-0.24-1.72-0.29
				c-1.16-0.13-2.34-0.13-3.51-0.11c-2.35,0.07-4.69,0.27-7.02,0.63c-2.33,0.32-4.63,0.8-6.9,1.41c-2.26,0.64-4.48,1.41-6.57,2.67
				c1.56-1.91,3.79-3.2,6.06-4.14c1.14-0.49,2.32-0.85,3.5-1.18c1.19-0.31,2.4-0.54,3.62-0.73c2.43-0.34,4.91-0.45,7.37-0.2
				c1.23,0.12,2.46,0.34,3.65,0.71c0.59,0.2,1.18,0.42,1.73,0.74C309.55,319.37,310.09,319.76,310.4,320.29z"/>
		</g>
	</g>
</g>
<g id="图层_9" class="st3">
	<g class="st4">
		<path class="st5" d="M222.82,186.78c1.9,9.89,4.16,19.71,7.04,29.35c2.87,9.64,6.49,19.05,10.99,28.03
			c4.54,8.94,10,17.5,16.91,24.85c6.89,7.34,15.19,13.47,24.52,17.7c-9.63-3.45-18.58-8.95-26.27-15.92
			c-7.72-6.96-14.08-15.34-19.53-24.19c-5.41-8.89-9.95-18.31-13.71-28c-3.78-9.68-6.93-19.59-9.71-29.59L222.82,186.78z"/>
	</g>
	<g class="st4">
		<path class="st5" d="M208.84,230.46c-0.74-4.68-1.11-9.33-1.41-13.98c-0.28-4.65-0.4-9.28-0.43-13.91
			c-0.03-4.63,0.06-9.24,0.22-13.86c0.07-2.31,0.22-4.61,0.32-6.91l0.45-6.9l0.77-11.84l7.91,8.86l4.6,5.14
			c1.5,1.75,3.02,3.47,4.5,5.23c2.96,3.53,5.87,7.09,8.68,10.75c2.81,3.66,5.56,7.37,8.19,11.2c2.62,3.83,5.18,7.72,7.47,11.86
			c-3.9-2.67-7.53-5.58-11.1-8.55c-3.56-2.98-7-6.07-10.37-9.21c-3.38-3.14-6.65-6.38-9.88-9.66c-1.62-1.64-3.19-3.31-4.79-4.97
			l-4.69-5.06l8.68-2.99l-0.58,6.89c-0.24,2.29-0.44,4.59-0.72,6.88c-0.53,4.59-1.12,9.17-1.85,13.74
			c-0.73,4.57-1.54,9.13-2.5,13.69C211.33,221.4,210.27,225.94,208.84,230.46z"/>
	</g>
</g>
<g id="图层_15">
	
		<linearGradient id="SVGID_1_" gradientUnits="userSpaceOnUse" x1="373.7504" y1="318.9868" x2="373.7504" y2="384.3213" gradientTransform="matrix(0.9158 -0.4017 0.4017 0.9158 -118.4339 179.6638)">
		<stop  offset="0.0729" style="stop-color:#726F6F"/>
		<stop  offset="0.9492" style="stop-color:#619327"/>
	</linearGradient>
	<path class="st6" d="M352.49,336.39c12.77,4.92,27.97,25.65,32.39,31.66c0,0-8.05,8.49-8.05,8.49
		C374.67,364.05,362.36,345.21,352.49,336.39z"/>
</g>
<g id="图层_12">
	<g>
		<linearGradient id="SVGID_2_" gradientUnits="userSpaceOnUse" x1="177.6796" y1="284.3659" x2="365.5357" y2="284.3659">
			<stop  offset="0.5347" style="stop-color:#D4FFDC"/>
			<stop  offset="1" style="stop-color:#FFFFFF;stop-opacity:0"/>
		</linearGradient>
		<polygon class="st7" points="358.23,350.6 301.91,289.27 308.05,289.33 281.62,315.42 277.22,319.76 275.73,313.89 256.58,238.33 
			260.76,239.07 234.16,275.71 232.85,277.52 231.43,275.88 181.38,218.13 234.03,273.52 231.29,273.69 256.93,236.37 
			259.73,232.29 261.11,237.11 282.49,312.06 276.6,310.53 301.97,283.41 304.98,280.19 308.11,283.47 365.54,343.77 		"/>
	</g>
</g>
<g id="图层_8">
	<g>
		<linearGradient id="SVGID_3_" gradientUnits="userSpaceOnUse" x1="350.559" y1="211.6583" x2="533.1078" y2="211.6583">
			<stop  offset="0" style="stop-color:#FFC398;stop-opacity:0.6"/>
			<stop  offset="1" style="stop-color:#FFFFFF"/>
		</linearGradient>
		<polygon class="st8" points="350.56,338.82 365.58,292.3 367.38,286.72 373.01,287.49 400.37,291.2 393.15,296.81 410.98,170.85 
			412.65,159 420.17,168.15 454.04,209.39 446.3,211.28 463.23,143.77 464.38,139.21 467.75,142.24 492.36,164.33 489.76,164.97 
			526.16,80.06 492.83,166.22 492.03,168.28 490.23,166.87 464.16,146.53 468.68,145 454.98,213.24 453.22,222 447.24,215.14 
			412.17,174.92 421.36,172.21 406.04,298.5 405.28,304.79 398.81,304.11 371.35,301.21 378.78,296.39 364.89,343.26 		"/>
	</g>
	<g id="图层_13">
		<linearGradient id="SVGID_4_" gradientUnits="userSpaceOnUse" x1="354.9077" y1="298.9772" x2="354.9077" y2="421.4519">
			<stop  offset="0" style="stop-color:#CC402E"/>
			<stop  offset="1.198083e-07" style="stop-color:#F4A680"/>
			<stop  offset="0.1412" style="stop-color:#F2A17C"/>
			<stop  offset="0.2538" style="stop-color:#F2A17C"/>
			<stop  offset="0.5216" style="stop-color:#CC402E"/>
			<stop  offset="0.993" style="stop-color:#CC402E"/>
			<stop  offset="1" style="stop-color:#CC402E"/>
		</linearGradient>
		<path class="st9" d="M363.08,326.58c-14,24.83-23.29,46.16-20.74,89.87h19.81C346.75,387.31,358.51,353.11,363.08,326.58z"/>
	</g>
</g>
</svg>
